<?xml version="1.0" standalone="no"?>
<!DOCTYPE svg PUBLIC "-//W3C//DTD SVG 20010904//EN"
 "http://www.w3.org/TR/2001/REC-SVG-20010904/DTD/svg10.dtd">
<svg version="1.0" xmlns="http://www.w3.org/2000/svg"
 width="800.000000pt" height="208.000000pt" viewBox="0 0 800.000000 208.000000"
 preserveAspectRatio="xMidYMid meet">

<g transform="translate(0.000000,208.000000) scale(0.100000,-0.100000)"
fill="#000000" stroke="none">
<path d="M728 1581 l-218 -126 0 -208 0 -208 -30 16 -30 15 -2 175 -3 175 -37
-25 -38 -26 0 -172 0 -173 108 -62 107 -62 3 254 2 254 163 93 c89 51 171 99
182 106 17 10 25 10 48 -5 l27 -18 -180 -104 -180 -104 0 -257 0 -257 93 -52
c139 -80 132 -74 102 -94 -26 -17 -27 -16 -233 103 -115 66 -216 123 -225 127
-15 6 -17 -5 -17 -114 0 -143 -31 -109 252 -271 l196 -113 166 96 c206 120
196 116 196 78 0 -28 -9 -35 -150 -117 -83 -47 -148 -90 -146 -93 2 -4 20 -15
38 -25 l34 -18 152 88 152 88 0 122 c0 68 -3 123 -6 123 -4 0 -99 -54 -213
-119 -113 -66 -211 -121 -217 -123 -6 -2 -93 44 -193 101 -168 97 -181 106
-181 132 0 16 4 29 8 29 4 0 86 -45 181 -100 95 -55 176 -100 179 -100 2 0
103 57 223 126 l219 126 0 129 c0 71 3 129 8 129 4 0 17 -8 29 -18 22 -17 23
-22 25 -268 l3 -251 107 61 108 61 0 255 0 256 -180 103 c-99 57 -180 104
-180 106 0 1 11 10 24 19 24 15 29 13 172 -69 81 -47 151 -85 156 -85 4 0 8
19 8 43 l0 42 -155 88 -154 89 -101 -57 c-55 -32 -102 -61 -105 -65 -3 -5 94
-65 215 -135 l220 -127 0 -209 0 -208 -30 -16 -30 -16 0 209 0 209 -220 127
c-120 69 -222 126 -225 126 -4 0 -38 -18 -76 -40 l-69 -41 0 -45 0 -45 73 40
73 40 110 -63 109 -63 3 -47 3 -46 -226 0 -226 0 3 126 3 126 215 124 c118 68
215 126 215 129 0 6 -205 125 -213 124 -4 -1 -105 -58 -224 -128z m450 -627
l-3 -47 -109 -63 c-125 -72 -98 -74 -252 17 l-84 50 0 44 0 45 226 0 225 0 -3
-46z"/>
<path d="M2720 1045 l0 -315 235 0 235 0 0 55 0 55 -177 2 -178 3 0 70 0 70
168 3 167 2 0 55 0 55 -170 0 -170 0 0 70 0 70 178 2 177 3 0 55 0 55 -232 3
-233 2 0 -315z"/>
<path d="M3360 1356 c0 -3 47 -73 105 -156 58 -83 105 -153 105 -155 0 -3 -47
-72 -105 -155 -58 -82 -105 -152 -105 -155 0 -3 29 -5 65 -5 l64 0 62 93 c34
50 70 102 80 115 l17 23 79 -115 78 -115 68 -1 69 0 -54 78 c-30 42 -80 113
-110 157 l-56 80 104 149 c57 82 104 153 104 158 0 5 -28 8 -62 6 l-63 -3 -75
-112 c-41 -62 -78 -112 -81 -113 -4 0 -42 52 -85 115 l-78 115 -63 0 c-35 0
-63 -2 -63 -4z"/>
<path d="M4320 1333 c-20 -45 -231 -514 -251 -560 l-18 -43 63 0 62 0 29 60
29 60 162 0 161 0 26 -60 26 -60 66 0 65 0 -24 53 c-13 28 -76 170 -141 315
l-118 262 -62 0 c-58 0 -63 -2 -75 -27z m133 -243 l54 -125 -59 -3 c-32 -2
-83 -2 -113 0 l-53 3 55 128 c31 70 57 126 59 125 1 -2 27 -59 57 -128z"/>
<path d="M4900 1045 l0 -317 183 4 c151 2 188 6 214 21 73 39 103 104 82 179
-10 40 -58 100 -87 109 -10 3 0 19 28 47 l42 42 -4 65 c-3 55 -8 69 -33 96
-51 54 -83 62 -262 67 l-163 4 0 -317z m345 251 c63 -27 92 -104 60 -165 -24
-47 -76 -61 -225 -61 l-130 0 0 120 0 120 130 0 c91 0 141 -4 165 -14z m26
-297 c90 -45 91 -162 2 -204 -29 -15 -70 -20 -180 -23 l-143 -5 0 127 0 126
140 0 c122 0 146 -3 181 -21z"/>
<path d="M5836 1308 c-13 -29 -74 -165 -136 -303 -62 -137 -114 -256 -117
-263 -4 -10 2 -13 22 -10 23 3 31 13 58 76 l31 72 189 0 188 0 34 -75 c30 -64
38 -75 60 -75 30 0 43 -37 -124 335 -118 263 -132 290 -156 293 -22 3 -28 -3
-49 -50z m134 -194 l79 -179 -161 -3 c-88 -1 -162 -1 -164 1 -3 2 23 66 57
143 34 76 70 159 80 183 11 24 22 42 25 39 2 -3 40 -86 84 -184z"/>
<path d="M6508 1346 c-84 -30 -128 -82 -128 -151 0 -90 54 -130 225 -165 104
-21 172 -47 193 -73 24 -28 25 -89 4 -123 -30 -47 -83 -68 -177 -68 -89 -1
-145 21 -197 76 -28 31 -58 32 -58 4 0 -26 71 -85 129 -107 45 -17 72 -20 141
-17 151 7 224 64 224 175 0 96 -55 138 -234 174 -113 23 -173 48 -190 78 -32
61 10 131 93 156 96 28 183 15 242 -37 35 -30 65 -32 65 -4 0 21 -65 71 -109
85 -51 15 -177 13 -223 -3z"/>
<path d="M7110 1045 l0 -315 220 0 c213 0 220 1 220 20 0 19 -7 20 -195 20
l-195 0 0 125 0 125 180 0 180 0 0 25 0 25 -180 0 -180 0 0 120 0 120 190 0
190 0 0 25 0 25 -215 0 -215 0 0 -315z"/>
<path d="M1960 1040 l0 -310 60 0 60 0 0 125 0 125 155 0 155 0 0 -125 0 -125
55 0 55 0 0 310 0 310 -55 0 -55 0 0 -130 0 -130 -155 0 -155 0 0 130 0 130
-60 0 -60 0 0 -310z"/>
</g>
</svg>
